<?xml version="1.0" encoding="UTF-8"?>
<svg id="Camada_1" data-name="Camada 1" xmlns="http://www.w3.org/2000/svg" viewBox="0 0 104.92 77.77">
  <path d="M23.42,71.3c1.17,9.12-12.78,6.02-17.82,5.73-3.32-.98-4.15-3.53-4.57-6.62-.92-3.82-1.36-7.74-.76-11.69C0,41.02-1.41,36.58,10.54,23.7c-1.82-1.45-7.93.28-6.35-4.83.66-2.15,6.48-3.9,8.37-3.25,1.81.42-1.15,5.96.04,5.81C18.06,14.54,21.1,1.63,32.24,1.36c10.98-1.69,25.28-1.72,36.35-.55,14.13-.45,17.2,11.04,23.67,20.61,1.25.13-1.81-5.32.04-5.81,1.89-.64,7.71,1.1,8.37,3.25,1.5,4.86-3.96,3.48-6.18,4.79-.16.09-.49.01-.32.44,11.77,9.72,10.92,20.34,10.42,34.62.11,3.03,1.08,7.12-.94,9.69.58,3.47-.54,7.56-4.39,8.63-5.04.27-19.03,3.39-17.82-5.73H23.42ZM43.22,4c-16.3-.12-19.19.09-25.73,15.76-1.52,2.64,69.78-.32,70.05.56-2.33-5.3-4.95-11.73-9.83-15.07-11.2-1.71-23.06-1.25-34.48-1.25ZM6.79,35.83c-7.15,5.83,6.09,11.71,10.59,12.62,1.14-.38,5.69-5.78,4.51-6.96,0,0-15.11-5.66-15.11-5.66ZM97.9,35.83l-15.07,5.78c-.35,1.98,3.21,6.26,4.87,6.88,3.72-1.18,10.62-3.81,12.27-7.81.27-1.28-.29-4.93-2.06-4.84ZM40.67,41.69c-4.47.17-11.42-.1-14.45,3.62-4.05,4.97.48,7.41,5.07,8.4,10.39,2.23,29.76,1.98,40.31.34,4.83-.75,11.93-3,6.91-8.87-6.94-6.06-28.14-2.84-37.84-3.49ZM12.68,55.68c-3.91-.67-7.4,5.49-3.94,7.87,5.3,1.88,8.33-.88,11.76-4.38.76-3.02-5.82-3.26-7.81-3.49ZM89.53,55.94c-1.38.17-5.81,1.15-5.24,3.06,3.05,3.47,6.84,6.6,11.84,4.56,2.86-1.4.78-7.22-2.11-7.67-1.1-.17-3.35-.08-4.49.05ZM82.46,64.46c-1.07-2.15-5.73-3.16-8.02-3.56-13.01,2.17-43.57-4.82-52.04,3.56h60.06Z" style="fill: #fff;"/>
</svg>